<svg xmlns="http://www.w3.org/2000/svg" xmlns:vectornator="http://vectornator.io" xmlns:xlink="http://www.w3.org/1999/xlink" style="fill-rule:nonzero;clip-rule:evenodd;stroke-linecap:round;stroke-linejoin:round" width="100%" height="100%" version="1.1" viewBox="0 0 814.4 813.9" xml:space="preserve"><g id="Untitled" vectornator:layerName="Untitled"><path fill="#fff" stroke="#333" stroke-linecap="butt" stroke-linejoin="miter" stroke-width="0" d="M406.112+11.5396L407.888+11.5396C625.693+11.5396+802.259+188.106+802.259+405.911L802.259+405.911C802.259+623.716+625.693+800.282+407.888+800.282L406.112+800.282C188.307+800.282+11.7412+623.716+11.7412+405.911L11.7412+405.911C11.7412+188.106+188.307+11.5396+406.112+11.5396Z" opacity="1"/><g opacity="1"><path fill="#222" d="M375.2+0.3C373.3+0.5+367.2+1.2+361.7+1.7C283.5+9.9+206.5+43+143.7+95.6C132.1+105.2+105.7+131.6+96.1+143.2C44.1+205.3+13.7+275+2.50002+357.5C1.52588e-05+375.8+1.52588e-05+437.6+2.50002+455.9C13.7+538.4+44.1+608.1+96.1+670.2C105.7+681.8+132.1+708.2+143.7+717.8C205.8+769.8+275.5+800.2+358+811.4C376.3+813.9+438.1+813.9+456.4+811.4C538.9+800.2+608.6+769.8+670.7+717.8C682.3+708.2+708.7+681.8+718.3+670.2C770.3+608.1+800.7+538.4+811.9+455.9C814.4+437.6+814.4+375.8+811.9+357.5C800.7+275+770.3+205.3+718.3+143.2C708.7+131.6+682.3+105.2+670.7+95.6C608.8+43.8+538.4+13+457+2.1C448.2+0.900001+435.4+0.400001+411.7+0.200002C393.6+1.52737e-06+377.1+0.100002+375.2+0.3ZM380.2+43.5C380.2+55.2+381+80.6+382.1+104.7C382.7+116.5+383.4+133.4+383.7+142.2C384.8+173.4+388.1+255.3+388.6+262.6L389.1+269.9L384.6+269.4C382.1+269.2+379.8+268.6+379.4+268.3C379.1+267.9+378.4+261+378+252.9C376.2+217.3+370.3+79.2+369.7+59L369.1+36.8L371.9+36.4C373.4+36.2+375.9+35.9+377.5+35.8L380.2+35.7L380.2+43.5ZM475.9+41.1C476+41.2+476.3+71.4+476.6+108.2C477+145.1+477.5+178.2+477.8+181.8C478.1+185.5+478+188.7+477.5+188.9C477.1+189.2+474.6+189.2+472.1+188.9L467.5+188.5L466.8+159.4C466.4+143.3+465.9+125.5+465.7+119.7C464.9+102+464.2+41.9+464.8+40.4C465.2+39.3+466.3+39.2+470.5+39.9C473.4+40.5+475.8+41+475.9+41.1ZM244.6+74.6C245.2+75.5+249.9+130.6+255.7+202.7C257.6+227.2+259.5+249.6+259.8+252.4C260.3+257.5+260.2+257.7+257+259.7C255.2+260.8+253.4+261.7+253+261.7C252.7+261.7+252.1+259.1+251.8+255.9C250.4+242.9+245+180.1+241.2+134.7C239+108+237+84.1+236.7+81.5C236.2+77.1+236.3+76.7+238.9+75.3C242.1+73.6+243.9+73.3+244.6+74.6ZM519.9+94.7C522.7+95.7+523+96.2+523.6+101.9C524.6+111.9+524.3+159.7+523.2+159.7C520.3+159.7+514.3+156.3+513.8+154.4C513.5+153.2+513.2+139+513.2+122.9C513.2+90.4+512.8+92.3+519.9+94.7ZM335.2+99.4C335.2+102.1+335.9+117+336.7+132.7C337.5+148.4+338.4+168.3+338.8+176.9C339.5+194.3+339.7+193.7+333+194.1C329.7+194.2+329.7+194.2+329.5+189.2C329.3+186.4+328.8+177.7+328.2+169.7C327.7+161.7+326.5+144.4+325.7+131.2C324.9+118+323.9+104.9+323.6+102.1C323+97.1+323.1+96.9+325.8+95.9C327.4+95.3+330.2+94.8+332+94.8C335.2+94.7+335.2+94.7+335.2+99.4ZM612.6+113.1L616+114.5L616.7+127.9C617+135.2+617.2+151+617+162.9L616.7+184.7L612.5+182.6L608.3+180.6L608+147.4C607.8+129.1+607.9+113.6+608.1+112.9C608.5+111.4+608.5+111.4+612.6+113.1ZM430+126.2C430.6+126.8+432+175.3+432.1+199.9L432.2+214.7L427.5+214C424.8+213.7+422.6+213.4+422.5+213.3C422.2+213.1+419.2+139+419.2+131.8L419.2+124.4L424.3+125C427.2+125.4+429.7+125.9+430+126.2ZM660.3+133.3C661.5+134.7+661.7+156.6+662+277.4C662.3+416.1+662.3+419.7+660.5+419.7C659.4+419.7+657.9+419.1+657+418.4C655.5+417.3+655.3+405.2+654.8+286.7C654.4+214.9+653.9+149.7+653.6+141.8L653+127.4L655.9+129.5C657.6+130.7+659.5+132.4+660.3+133.3ZM570.6+153.8C571.1+154.2+571.6+159.9+571.7+166.4C572.2+188.5+572.3+324+571.8+324.4C571.6+324.6+569.8+324.1+567.8+323.3L564.2+321.8L564.2+151.7L567+152.3C568.5+152.7+570.1+153.3+570.6+153.8ZM294.6+159.4C294.9+162.1+295.4+168.2+295.7+173.2C296+178.1+296.7+189.3+297.3+198C298.5+215.6+298.3+216.7+292.6+216.7C289.6+216.7+289.2+216.4+288.8+213.4C287.8+207.5+284.3+158.3+284.8+157.5C285.3+156.8+290.5+155+292.9+154.8C293.5+154.7+294.3+156.8+294.6+159.4ZM129.2+184.9C130.3+195.5+132.5+217.7+134.1+234.2C135.8+250.7+137.2+264.7+137.2+265.3C137.2+266.5+129.5+270.3+128.7+269.5C128.2+269+118.2+180.5+118.2+176.5C118.2+174.1+125.9+164+126.9+165.1C127.2+165.3+128.2+174.2+129.2+184.9ZM521.3+195.4L524.2+197.1L524.3+218.7C524.4+230.5+524.6+243.7+524.6+248C524.8+257+523.7+258.5+518.3+256.6L515.2+255.5L515.2+246.9C515.2+242.1+514.9+228.2+514.5+215.9L513.9+193.7L516.2+193.7C517.4+193.7+519.7+194.5+521.3+195.4ZM173.1+234.2C174.9+253.4+177.8+285.8+179.7+306.2L183.1+343.2L179.2+347.1L175.4+351L174.7+343.1C174.3+338.7+172.3+318.3+170.2+297.7C168.1+277.1+165.1+247.2+163.6+231.3L160.8+202.5L164.7+198.9C168.2+195.6+168.6+195.5+169.3+197.3C169.7+198.3+171.4+214.9+173.1+234.2ZM98.2+246.3C100.4+266+106.2+318.4+111.2+362.7C116.2+407+120.9+449.7+121.8+457.7C122.6+465.7+124+477.8+124.8+484.7C126.2+496.4+126.2+497.2+124.6+498.4C122.2+500.2+121.2+500+121.2+497.9C121.2+497+120.3+489.4+119.2+481.2C117.4+467.5+114.4+444.3+107.7+392.2C106.3+381.7+103.6+360.8+101.7+345.7C99.7+330.6+96.8+308.1+95.2+295.7C93.6+283.3+90.9+262.1+89.2+248.4C87.4+234.8+86.3+222.7+86.6+221.4C87.3+218.7+93.2+209.3+93.8+209.9C94+210.2+96+226.5+98.2+246.3ZM67.6+289.4C69.1+301.4+71.9+323.3+73.8+338.2C75.7+353+78.1+371.5+79.2+379.2L81.1+393.2L79+395C77.8+396+76.6+396.4+76.2+396C75.8+395.6+75+391.6+74.4+387.2C73.8+382.8+70.1+357.1+66.1+330.2L59+281.2L61.3+274.4C62.5+270.7+63.8+267.7+64.1+267.7C64.5+267.7+66+277.5+67.6+289.4ZM616.6+276.3C618+277.7+618.2+283.9+618.2+329.8L618.2+381.7L615.4+381.7C609.3+381.7+609.4+383.2+609+326.4L608.7+274.7L611.9+274.7C613.6+274.7+615.8+275.4+616.6+276.3ZM397.7+294.2C420.3+297.6+440+303.9+459.5+313.9C472.1+320.4+478.1+324.9+492.1+338.3C512.9+358.2+525.7+375.6+537.7+400.2C555.2+436+562+467.7+570.6+552.7C574.5+590.8+579.6+659.9+580.7+688.2C581+696.4+581.7+709.9+582.3+718.2C583.4+735.8+584.7+733.4+569.2+740.9C547.7+751.3+527+758.5+499.7+765.2C466.3+773.4+444.7+776+411.7+776.1L387.7+776.2L387.9+764.7C387.9+758.4+388.5+743.7+389.1+732.2C392.1+676.5+391.5+606.2+387.6+567.2C385.4+544.8+381.1+517.6+378.7+511.6C378.2+510.3+380.5+509.2+390.4+505.8C408.5+499.5+424.2+491.6+426.6+487.7C430.9+480.3+423.2+469.7+413.4+469.7C411.7+469.7+406.6+471.5+401.9+473.6C379.5+483.9+334.6+496+308.7+498.7C290.8+500.6+263+499.5+243.7+496C233.2+494.1+214.4+487+198.7+478.9C180.6+469.5+169.5+457+166.2+442.2C164.4+434.2+164.9+418.2+167.2+409.2C169.7+399.3+176.7+384.9+183.1+376.5C211.6+339+270.4+306.5+330.7+295.1C349.9+291.5+377.1+291.1+397.7+294.2ZM706.2+297.3C709.8+298.8+710.2+299.2+710.2+302.6C710.4+329.9+709.8+392.3+709.3+394.9C709.2+395.8+704+395.9+701.8+395.1C700.4+394.6+700.2+389.2+700.2+345.1C700.2+313.5+700.6+295.7+701.2+295.7C701.7+295.7+704+296.4+706.2+297.3ZM749.9+352.2L753.5+353.7L752.8+436.5C752+542+751.9+545.1+748.1+554.2C741.9+569.1+742.2+572.1+742.8+506.7C743+474+743.5+440.9+743.7+433.2C743.9+425.5+744.1+403.8+744.2+384.9C744.2+362.1+744.5+350.7+745.2+350.7C745.8+350.7+747.9+351.4+749.9+352.2ZM148.5+377.1C149.1+385.2+148.9+386+146+392.4L142.8+399.2L141.6+389.2C139.7+373.2+139.7+372.5+143.5+370.1C145.2+368.9+147+368.1+147.3+368.3C147.6+368.5+148.2+372.5+148.5+377.1ZM86.7+437.4C87.6+445.6+94.6+500+98.2+526.7C103.6+568+104+573.9+101.6+571.4C101.3+571.1+99+557.2+96.6+540.5C81+432.7+81.1+433.4+82.4+432.6C85.1+430.8+86+431.8+86.7+437.4ZM158.7+483.2C159.3+485.7+162.2+512.8+162.2+516.1C162.2+518.9+158.6+521.5+157+519.9C156.5+519.4+155.2+510.9+154.2+501.1C153.1+491.2+152+480.9+151.7+478.2L151.1+473.2L154.6+477.2C156.6+479.4+158.4+482.1+158.7+483.2ZM239.4+520.9C240.5+521.9+241.2+525.9+242.1+536.7C243.6+556.2+243.8+554.7+239.7+554.7C235.5+554.7+235.6+555+234.2+537.4C232.8+519.5+232.8+519.7+235.5+519.7C236.8+519.7+238.5+520.3+239.4+520.9ZM318.6+522.4C318.8+523.4+319.3+529.4+319.7+535.7C320+542+320.9+556.2+321.7+567.2C324.5+607.6+324.6+612.7+322.9+612.7C321+612.7+320.8+611.2+318.6+582.7C317.8+570.9+316.3+552.3+315.3+541.4C314.4+530.5+313.8+521.4+314.1+521.2C315.2+520+318.1+520.9+318.6+522.4ZM130.6+541.6C131.2+542.5+135+574.5+139.7+618.2C141.1+631.4+142.5+644.1+142.8+646.5L143.3+650.8L140.8+649.2C138.9+647.9+138.2+646.6+138.2+644.3C138.2+638+133.9+596.5+130.6+571.1C128.7+556.7+127.2+544+127.2+542.8C127.2+540.7+129.6+539.9+130.6+541.6ZM707.7+583.4L707+625.2L704.5+628.9C698.8+637.3+699.1+638.9+699.4+592.1L699.6+549.2L703.3+545.4C705.3+543.4+707.3+541.7+707.7+541.7C708+541.7+708+560.5+707.7+583.4ZM615.2+649.7C615.7+707.8+615.6+712.3+614+714.1C613+715.2+612.1+715.9+611.8+715.6C611.1+714.8+610.1+588.1+610.9+587.4C611.3+587+612.3+586.8+613.2+586.9C614.5+587.2+614.8+594.3+615.2+649.7ZM288.6+609.9C289.3+616.1+291.8+645.8+292.8+659.8C293.4+669.2+293.4+669.5+291.2+670.2C290+670.6+288.6+670.5+288.2+670C287.5+669.3+285.3+647.1+282.6+612.9L281.9+604.7L285+604.7C287.9+604.7+288.1+604.9+288.6+609.9ZM210+644.9C210.7+645.6+211.2+648.1+211.2+650.6C211.2+653.2+212.4+666.7+213.7+680.7C217.5+719+217.8+724.2+216.1+723.2C213.5+721.7+211.2+719.4+211.7+718.8C211.9+718.4+211.5+713.4+210.7+707.7C210+701.9+209.1+692.5+208.7+686.7C208.3+680.9+207.4+670.3+206.6+663.2C204.7+645.7+204.8+643.7+207+643.7C208+643.7+209.3+644.2+210+644.9ZM257.3+712.2C257.6+714.4+258.2+722.6+258.6+730.4C259.3+745.4+259+746.5+254.9+743.4C253.7+742.5+252.9+738.7+251.7+727.3C249.6+706.7+249.5+707.5+253.4+707.9C256.3+708.2+256.7+708.6+257.3+712.2Z" opacity="1"/><path fill="#222" d="M221.6+342.1C211.2+346.6+210.4+360.7+220.2+365.7C227.3+369.3+234.5+367.6+238.2+361.4C245.2+350+233.8+336.8+221.6+342.1ZM289.4+351.7C279.8+357.6+279.8+371.8+289.4+377.7C298.9+383.4+311.2+375.9+311.2+364.5C311.2+353.5+298.6+346.1+289.4+351.7Z" opacity="1"/></g></g></svg>