<svg xmlns="http://www.w3.org/2000/svg" xmlns:vectornator="http://vectornator.io" xmlns:xlink="http://www.w3.org/1999/xlink" style="fill-rule:nonzero;clip-rule:evenodd;stroke-linecap:round;stroke-linejoin:round" width="100%" height="100%" version="1.1" viewBox="0 0 1023 1024.1" xml:space="preserve"><g id="Untitled" vectornator:layerName="Untitled"><path fill="#fff" d="M150.236+584.642C150.236+348.602+335.24+157.254+563.455+157.254C791.67+157.254+976.674+348.602+976.674+584.642C976.674+820.681+791.67+1012.03+563.455+1012.03C335.24+1012.03+150.236+820.681+150.236+584.642Z" opacity="1"/><path fill="#000" d="M478+0.8C475.8+1+468.8+1.7+462.5+2.2C317.2+15.3+181.1+93.7+94.9+214.2C46.9+281.2+16.2+357.2+4.59999+437.7C0.499991+465.8-9.05991e-06+474.1-9.05991e-06+512.2C-9.05991e-06+550.3+0.499991+558.6+4.59999+586.7C32.4+778.8+169.1+940.2+354.5+1000C387.7+1010.7+422.7+1018+462.5+1022.4C478+1024.1+545+1024.1+560.5+1022.4C629.2+1014.8+687.4+997.8+744.8+968.5C753.6+964+755.3+962.8+754.1+961.8C753.3+961.2+715.8+910.9+670.8+850.1L589+739.6L486.5+587.9C430.1+504.5+383.7+436.3+383.3+436.3C382.9+436.2+382.5+503.6+382.3+585.9C382+730+381.9+735.8+380.1+739.2C377.5+744.1+375.5+746.1+371.3+748.3C368.1+749.9+365.3+750.2+350.2+750.2L332.9+750.2L328.3+747.3C325.3+745.4+323.1+742.9+321.6+740L319.5+735.5L319.7+535L320+334.4L323.1+330.5C324.7+328.4+328.1+325.7+330.5+324.4C334.6+322.4+336.2+322.2+353.5+322.2C373.9+322.2+377.3+323+382.6+328.8C384.1+330.4+439.6+414+506+514.7C572.4+615.4+663.2+752.9+707.8+820.4L788.8+943.1L792.9+940.4C829.2+916.8+867.6+883.2+898+848.2C962.7+773.9+1004.4+683.3+1018.4+586.7C1022.5+558.6+1023+550.3+1023+512.2C1023+474.1+1022.5+465.8+1018.4+437.7C990.6+245.6+853.9+84.2+668.5+24.4C635.8+13.8+601+6.50001+562+2.10001C552.4+1.10001+486.3+8.18074e-06+478+0.8ZM687.4+310.2C692.2+312.6+696.1+317.2+697.5+322C698.3+324.6+698.5+380.2+698.3+505.5L698+685.3L666.3+636.7L634.5+588.1L634.5+457.4C634.5+372.9+634.9+325.4+635.5+323.1C637.1+317.5+640.6+313.1+645.4+310.5C649.5+308.4+651+308.2+666.7+308.2C681.5+308.2+684.1+308.4+687.4+310.2Z" opacity="1"/></g></svg>