<svg xmlns="http://www.w3.org/2000/svg" width="464" height="330" fill="none" viewBox="0 0 464 330"><g filter="url(#filter0_d_2_2)"><g clip-path="url(#clip0_2_2)"><rect width="448" height="314" x="8" y="8" fill="#fff" rx="20"/><path stroke="#9F9FA1" stroke-width="3" d="M232 59.5H291.5C294.261 59.5 296.5 61.7386 296.5 64.5V71.5C296.5 74.2614 298.739 76.5 301.5 76.5H319C321.761 76.5 324 78.7386 324 81.5V95.5C324 98.2614 326.239 100.5 329 100.5H377C379.761 100.5 382 102.739 382 105.5V155C382 157.761 379.761 160 377 160H364C361.239 160 359 162.239 359 165V204.5C359 207.261 356.761 209.5 354 209.5H329C326.239 209.5 324 211.739 324 214.5V220.5C324 223.261 321.761 225.5 319 225.5H301.5C298.739 225.5 296.5 227.739 296.5 230.5V259C296.5 261.761 294.261 264 291.5 264H232"/><path stroke="#9F9FA1" stroke-width="3" d="M456 52L356 52C353.239 52 351 49.7614 351 47V8"/><path stroke="#9F9FA1" stroke-width="3" d="M385 322V287C385 284.239 387.239 282 390 282H456"/><path stroke="#24272D" stroke-width="3" d="M382 160H421.408L456 160"/><path stroke="#24272D" stroke-width="3" d="M296 264H323C325.761 264 328 266.239 328 269V322"/><path stroke="#24272D" stroke-width="3" d="M254 136H339C341.761 136 344 133.761 344 131V102"/><rect width="12.5" height="12.5" x="338" y="95" fill="#24272D" rx="6.25"/><rect width="12.5" height="12.5" x="290" y="258" fill="#24272D" rx="6.25"/><rect width="12.5" height="12.5" x="376" y="154" fill="#24272D" rx="6.25"/><rect width="12.5" height="12.5" x="422" y="46" fill="#9F9FA1" rx="6.25"/><rect width="12.5" height="12.5" x="379" y="302" fill="#9F9FA1" rx="6.25"/><rect width="65" height="65" x="185.538" y="164.5" stroke="#24272D" stroke-width="10" rx="10" transform="rotate(-45 185.538 164.5)"/><rect width="224" height="314" x="232" y="8" fill="#C4C4C4" opacity=".25"/><rect width="224" height="314" x="8" y="8" fill="#fff" opacity=".5"/><rect width="14" height="14" x="20" y="18" fill="#EF4444" rx="7"/><rect width="14" height="14" x="40" y="18" fill="#EAB308" rx="7"/><rect width="14" height="14" x="60" y="18" fill="#22C55E" rx="7"/></g></g><defs><filter id="filter0_d_2_2" width="463" height="329" x=".5" y=".5" color-interpolation-filters="sRGB" filterUnits="userSpaceOnUse"><feFlood flood-opacity="0" result="BackgroundImageFix"/><feColorMatrix in="SourceAlpha" result="hardAlpha" type="matrix" values="0 0 0 0 0 0 0 0 0 0 0 0 0 0 0 0 0 0 127 0"/><feMorphology in="SourceAlpha" operator="dilate" radius="1.5" result="effect1_dropShadow_2_2"/><feOffset/><feGaussianBlur stdDeviation="3"/><feComposite in2="hardAlpha" operator="out"/><feColorMatrix type="matrix" values="0 0 0 0 0 0 0 0 0 0 0 0 0 0 0 0 0 0 0.25 0"/><feBlend in2="BackgroundImageFix" mode="normal" result="effect1_dropShadow_2_2"/><feBlend in="SourceGraphic" in2="effect1_dropShadow_2_2" mode="normal" result="shape"/></filter><clipPath id="clip0_2_2"><rect width="448" height="314" x="8" y="8" fill="#fff" rx="20"/></clipPath></defs></svg>