<svg width="100%" height="100%" viewBox="0 0 1024 1024" version="1.1" xmlns="http://www.w3.org/2000/svg" xmlns:xlink="http://www.w3.org/1999/xlink" xml:space="preserve" xmlns:serif="http://www.serif.com/" style="fill-rule:evenodd;clip-rule:evenodd;stroke-linejoin:round;stroke-miterlimit:2;">
    <rect id="Artboard1" x="0" y="0" width="1024" height="1024" style="fill:none;"/>
    <g transform="matrix(1,0,0,1,-176.029,52.4012)">
        <g id="Artboard11" serif:id="Artboard1">
            <g>
                <g transform="matrix(1.58318,0,0,1.25528,-35.8912,-262.184)">
                    <path d="M337.475,248.697C337.475,226.713 316.247,208.865 290.102,208.865L195.356,208.865C169.21,208.865 147.983,226.713 147.983,248.697L147.983,901.939C147.983,923.923 169.21,941.771 195.356,941.771L290.102,941.771C316.247,941.771 337.475,923.923 337.475,901.939L337.475,248.697Z" style="fill:white;"/>
                </g>
                <g transform="matrix(1,0,0,1,58.0792,-0.407796)">
                    <g transform="matrix(0.995513,0,0,1.59644,144.555,-456.026)">
                        <path d="M887.954,548.409C887.954,526.802 871.075,509.26 850.285,509.26L408.369,509.26C387.578,509.26 370.7,526.802 370.7,548.409L370.7,626.708C370.7,648.315 387.578,665.858 408.369,665.858L850.285,665.858C871.075,665.858 887.954,648.315 887.954,626.708L887.954,548.409Z" style="fill:white;"/>
                    </g>
                    <g transform="matrix(1.84969,0,0,1.28725,-510.992,-263.37)">
                        <path d="M883.925,243.44C883.925,222.003 865.756,204.598 843.377,204.598L762.283,204.598C739.904,204.598 721.736,222.003 721.736,243.44L721.736,880.455C721.736,901.893 739.904,919.298 762.283,919.298L843.377,919.298C865.756,919.298 883.925,901.893 883.925,880.455L883.925,243.44Z" style="fill:white;"/>
                    </g>
                </g>
            </g>
        </g>
    </g>
</svg>