<svg xmlns="http://www.w3.org/2000/svg" xmlns:xlink="http://www.w3.org/1999/xlink" id="visual" width="960" height="300" version="1.1" viewBox="0 0 960 300"><path fill="#a194e2" d="M0 209L22.8 208.7C45.7 208.3 91.3 207.7 137 205C182.7 202.3 228.3 197.7 274 198.8C319.7 200 365.3 207 411.2 211.2C457 215.3 503 216.7 548.8 211.8C594.7 207 640.3 196 686 190.5C731.7 185 777.3 185 823 188.8C868.7 192.7 914.3 200.3 937.2 204.2L960 208L960 301L937.2 301C914.3 301 868.7 301 823 301C777.3 301 731.7 301 686 301C640.3 301 594.7 301 548.8 301C503 301 457 301 411.2 301C365.3 301 319.7 301 274 301C228.3 301 182.7 301 137 301C91.3 301 45.7 301 22.8 301L0 301Z"/><path fill="#9585e2" d="M0 218L22.8 221.3C45.7 224.7 91.3 231.3 137 232.7C182.7 234 228.3 230 274 229.2C319.7 228.3 365.3 230.7 411.2 227.7C457 224.7 503 216.3 548.8 210.7C594.7 205 640.3 202 686 205.7C731.7 209.3 777.3 219.7 823 225.8C868.7 232 914.3 234 937.2 235L960 236L960 301L937.2 301C914.3 301 868.7 301 823 301C777.3 301 731.7 301 686 301C640.3 301 594.7 301 548.8 301C503 301 457 301 411.2 301C365.3 301 319.7 301 274 301C228.3 301 182.7 301 137 301C91.3 301 45.7 301 22.8 301L0 301Z"/><path fill="#8876e2" d="M0 219L22.8 221.7C45.7 224.3 91.3 229.7 137 230.5C182.7 231.3 228.3 227.7 274 225C319.7 222.3 365.3 220.7 411.2 222.8C457 225 503 231 548.8 232.8C594.7 234.7 640.3 232.3 686 235.2C731.7 238 777.3 246 823 249C868.7 252 914.3 250 937.2 249L960 248L960 301L937.2 301C914.3 301 868.7 301 823 301C777.3 301 731.7 301 686 301C640.3 301 594.7 301 548.8 301C503 301 457 301 411.2 301C365.3 301 319.7 301 274 301C228.3 301 182.7 301 137 301C91.3 301 45.7 301 22.8 301L0 301Z"/><path fill="#7b67e1" d="M0 264L22.8 262.7C45.7 261.3 91.3 258.7 137 256.8C182.7 255 228.3 254 274 254.5C319.7 255 365.3 257 411.2 259.5C457 262 503 265 548.8 262.7C594.7 260.3 640.3 252.7 686 249.3C731.7 246 777.3 247 823 250.2C868.7 253.3 914.3 258.7 937.2 261.3L960 264L960 301L937.2 301C914.3 301 868.7 301 823 301C777.3 301 731.7 301 686 301C640.3 301 594.7 301 548.8 301C503 301 457 301 411.2 301C365.3 301 319.7 301 274 301C228.3 301 182.7 301 137 301C91.3 301 45.7 301 22.8 301L0 301Z"/><path fill="#6e57e0" d="M0 283L22.8 281.8C45.7 280.7 91.3 278.3 137 275.3C182.7 272.3 228.3 268.7 274 268.7C319.7 268.7 365.3 272.3 411.2 273.2C457 274 503 272 548.8 271.7C594.7 271.3 640.3 272.7 686 274.8C731.7 277 777.3 280 823 280C868.7 280 914.3 277 937.2 275.5L960 274L960 301L937.2 301C914.3 301 868.7 301 823 301C777.3 301 731.7 301 686 301C640.3 301 594.7 301 548.8 301C503 301 457 301 411.2 301C365.3 301 319.7 301 274 301C228.3 301 182.7 301 137 301C91.3 301 45.7 301 22.8 301L0 301Z"/></svg>